<?xml version="1.0" encoding="UTF-8" standalone="no"?>
<svg version="1.1" width="256" height="256" viewBox="0 0 256 256" xml:space="preserve" id="svg18" xmlns="http://www.w3.org/2000/svg" xmlns:svg="http://www.w3.org/2000/svg">
  <defs id="defs2">
    <clipPath clipPathUnits="userSpaceOnUse" id="clipPath977">
      <rect style="fill:#ff0000;stroke-width:0.540018" id="rect979" width="91.341652" height="137.97366" x="-29.888781" y="-67.45224" transform="matrix(0.72635601,0.68731866,-0.70694507,0.70726845,0,0)" />
    </clipPath>
    <clipPath clipPathUnits="userSpaceOnUse" id="clipPath981">
      <rect style="fill:#ff0000;stroke-width:1.51745" id="rect983" width="256.67004" height="387.70599" x="378.43121" y="-366.31894" transform="matrix(0.72895384,0.68456286,-0.70426142,0.70994074,0,0)" />
    </clipPath>
    <clipPath clipPathUnits="userSpaceOnUse" id="clipPath985">
      <rect style="fill:#ff0000;stroke-width:1.51745" id="rect987" width="256.67004" height="387.70599" x="378.43121" y="-366.31894" transform="matrix(0.72895384,0.68456286,-0.70426142,0.70994074,0,0)" />
    </clipPath>
    <clipPath clipPathUnits="userSpaceOnUse" id="clipPath989">
      <rect style="fill:#ff0000;stroke-width:1.51745" id="rect991" width="256.67004" height="387.70599" x="378.43121" y="-366.31894" transform="matrix(0.72895384,0.68456286,-0.70426142,0.70994074,0,0)" />
    </clipPath>
    <clipPath clipPathUnits="userSpaceOnUse" id="clipPath993">
      <rect style="fill:#ff0000;stroke-width:1.51745" id="rect995" width="256.67004" height="387.70599" x="378.43121" y="-366.31894" transform="matrix(0.72895384,0.68456286,-0.70426142,0.70994074,0,0)" />
    </clipPath>
    <clipPath clipPathUnits="userSpaceOnUse" id="clipPath997">
      <rect style="fill:#ff0000;stroke-width:1.51745" id="rect999" width="256.67004" height="387.70599" x="378.43121" y="-366.31894" transform="matrix(0.72895384,0.68456286,-0.70426142,0.70994074,0,0)" />
    </clipPath>
    <clipPath clipPathUnits="userSpaceOnUse" id="clipPath1001">
      <rect style="fill:#ff0000;stroke-width:1.51745" id="rect1003" width="256.67004" height="387.70599" x="378.43121" y="-366.31894" transform="matrix(0.72895384,0.68456286,-0.70426142,0.70994074,0,0)" />
    </clipPath>
    <clipPath clipPathUnits="userSpaceOnUse" id="clipPath1005">
      <rect style="fill:#ff0000;stroke-width:1.51745" id="rect1007" width="256.67004" height="387.70599" x="378.43121" y="-366.31894" transform="matrix(0.72895384,0.68456286,-0.70426142,0.70994074,0,0)" />
    </clipPath>
    <clipPath clipPathUnits="userSpaceOnUse" id="clipPath1009">
      <rect style="fill:#ff0000;stroke-width:1.51745" id="rect1011" width="256.67004" height="387.70599" x="378.43121" y="-366.31894" transform="matrix(0.72895384,0.68456286,-0.70426142,0.70994074,0,0)" />
    </clipPath>
    <clipPath clipPathUnits="userSpaceOnUse" id="clipPath1013">
      <rect style="fill:#ff0000;stroke-width:1.51745" id="rect1015" width="256.67004" height="387.70599" x="378.43121" y="-366.31894" transform="matrix(0.72895384,0.68456286,-0.70426142,0.70994074,0,0)" />
    </clipPath>
    <clipPath clipPathUnits="userSpaceOnUse" id="clipPath1017">
      <rect style="fill:#ff0000;stroke-width:1.51745" id="rect1019" width="256.67004" height="387.70599" x="378.43121" y="-366.31894" transform="matrix(0.72895384,0.68456286,-0.70426142,0.70994074,0,0)" />
    </clipPath>
    <clipPath clipPathUnits="userSpaceOnUse" id="clipPath1021">
      <rect style="fill:#ff0000;stroke-width:1.51745" id="rect1023" width="256.67004" height="387.70599" x="378.43121" y="-366.31894" transform="matrix(0.72895384,0.68456286,-0.70426142,0.70994074,0,0)" />
    </clipPath>
    <clipPath clipPathUnits="userSpaceOnUse" id="clipPath1025">
      <rect style="fill:#ff0000;stroke-width:1.51745" id="rect1027" width="256.67004" height="387.70599" x="378.43121" y="-366.31894" transform="matrix(0.72895384,0.68456286,-0.70426142,0.70994074,0,0)" />
    </clipPath>
    <clipPath clipPathUnits="userSpaceOnUse" id="clipPath1029">
      <rect style="fill:#ff0000;stroke-width:1.51745" id="rect1031" width="256.67004" height="387.70599" x="378.43121" y="-366.31894" transform="matrix(0.72895384,0.68456286,-0.70426142,0.70994074,0,0)" />
    </clipPath>
    <clipPath clipPathUnits="userSpaceOnUse" id="clipPath1033">
      <rect style="fill:#ff0000;stroke-width:1.51745" id="rect1035" width="256.67004" height="387.70599" x="378.43121" y="-366.31894" transform="matrix(0.72895384,0.68456286,-0.70426142,0.70994074,0,0)" />
    </clipPath>
  </defs>
  <g style="stroke: none; stroke-width: 0; stroke-dasharray: none; stroke-linecap: butt; stroke-linejoin: miter; stroke-miterlimit: 10; fill: none; fill-rule: nonzero; opacity: 1;" transform="translate(1.4065934065934016 1.4065934065934016) scale(2.81 2.81)" id="g16" clip-path="url(#clipPath977)">
    <circle cx="45" cy="45" r="45" style="stroke: none; stroke-width: 1; stroke-dasharray: none; stroke-linecap: butt; stroke-linejoin: miter; stroke-miterlimit: 10; fill: rgb(13,94,175); fill-rule: nonzero; opacity: 1;" id="circle4" transform="  matrix(1 0 0 1 0 0) " />
    <rect x="-10" y="-20" rx="0" ry="0" width="130" height="110" style="stroke: none; stroke-width: 1; stroke-dasharray: none; stroke-linecap: butt; stroke-linejoin: miter; stroke-miterlimit: 10; fill: none; fill-rule: nonzero; opacity: 1;" id="rect6" transform=" matrix(1 0 0 1 0 0) " />
    <path d="M 87.429 30 H 50 v 10 h 39.717 C 89.333 36.532 88.555 33.185 87.429 30 z" style="stroke: none; stroke-width: 1; stroke-dasharray: none; stroke-linecap: butt; stroke-linejoin: miter; stroke-miterlimit: 10; fill: rgb(243,244,245); fill-rule: nonzero; opacity: 1;" stroke-linecap="round" id="path8" transform=" matrix(1 0 0 1 0 0) " />
    <path d="M 50 20 h 32.417 c -2.529 -3.778 -5.618 -7.148 -9.144 -10 H 50 V 20 z" style="stroke: none; stroke-width: 1; stroke-dasharray: none; stroke-linecap: butt; stroke-linejoin: miter; stroke-miterlimit: 10; fill: rgb(243,244,245); fill-rule: nonzero; opacity: 1;" stroke-linecap="round" id="path10" transform=" matrix(1 0 0 1 0 0) " />
    <path d="M 0.283 50 c 0.384 3.468 1.162 6.815 2.288 10 h 84.859 c 1.126 -3.185 1.904 -6.532 2.288 -10 H 30 V 30 h 20 V 20 H 30 V 2.571 c -3.56 1.259 -6.915 2.947 -10 5.012 V 20 H 7.583 c -2.065 3.085 -3.754 6.44 -5.012 10 H 20 v 20 H 0.283 z" style="stroke: none; stroke-width: 1; stroke-dasharray: none; stroke-linecap: butt; stroke-linejoin: miter; stroke-miterlimit: 10; fill: rgb(243,244,245); fill-rule: nonzero; opacity: 1;" stroke-linecap="round" id="path12" transform=" matrix(1 0 0 1 0 0) " />
    <path d="M 7.583 70 c 2.529 3.778 5.618 7.148 9.144 10 h 56.546 c 3.526 -2.852 6.615 -6.222 9.144 -10 H 7.583 z" style="stroke: none; stroke-width: 1; stroke-dasharray: none; stroke-linecap: butt; stroke-linejoin: miter; stroke-miterlimit: 10; fill: rgb(243,244,245); fill-rule: nonzero; opacity: 1;" stroke-linecap="round" id="path14" transform=" matrix(1 0 0 1 0 0) " />
  </g>
  <path d="m 520.03726,161.72271 c 0.0955,-0.34563 0.21356,-0.68283 0.30629,-1.03127 l -0.0112,-0.006 c 2.81562,-10.47006 4.34145,-21.4684 4.34145,-32.82923 0,-11.33273 -1.5174,-22.30578 -4.32178,-32.756167 l 0.0112,-0.0056 c -0.10959,-0.41026 -0.24728,-0.81209 -0.35968,-1.21954 -0.38497,-1.38252 -0.7868,-2.75942 -1.21954,-4.12508 -0.22761,-0.72217 -0.46927,-1.43872 -0.71093,-2.15808 -0.20513,-0.60977 -0.39059,-1.22797 -0.60415,-1.83493 h -0.0421 c -4.62245,-13.07493 -11.29901,-25.1776 -19.6981,-35.87808 l -57.36334,28.68448 V 8.6282934 c -12.27408,-4.33864 -25.41926,-6.81987 -39.10115,-7.14302 h -6.08084 c -13.67908,0.32315 -26.82145,2.80438 -39.09553,7.14021 V 78.563573 L 298.7189,49.876283 c -8.39909,10.70329 -15.07846,22.80596 -19.6981,35.88089 h -0.0422 c -0.21356,0.60696 -0.40183,1.22516 -0.60696,1.83493 -0.24166,0.71655 -0.48332,1.43029 -0.71093,2.14965 -0.43274,1.36566 -0.83457,2.74537 -1.21954,4.1307 -0.1124,0.40745 -0.25009,0.80647 -0.35968,1.21392 l 0.0112,0.0056 c -2.80157,10.456007 -4.31897,21.429057 -4.31897,32.764597 0,11.36083 1.52583,22.35917 4.34145,32.83204 l -0.0112,0.006 c 0.0927,0.34563 0.20794,0.68002 0.30348,1.02565 0.41026,1.47244 0.83738,2.93926 1.29822,4.38922 0.21075,0.66316 0.43274,1.3207 0.65473,1.98105 0.21637,0.64911 0.41588,1.30384 0.64349,1.94733 h 0.0478 c 4.62807,13.06931 11.31025,25.16355 19.71496,35.85841 l 57.324,-28.662 v 69.8566 c 13.18171,4.65617 27.35535,7.21608 42.13314,7.21608 14.7806,0 28.95705,-2.55991 42.14157,-7.2217 v -69.85098 l 57.31838,28.65919 c 8.40471,-10.69486 15.08408,-22.7891 19.71215,-35.8556 h 0.0421 c 0.22761,-0.64349 0.42712,-1.30103 0.6463,-1.95014 0.22199,-0.65754 0.44398,-1.31508 0.65473,-1.97824 0.46084,-1.45277 0.89077,-2.91678 1.29822,-4.38641 z" style="fill:#f3f4f5;fill-rule:nonzero;stroke:none;stroke-width:2.81;stroke-linecap:butt;stroke-linejoin:miter;stroke-miterlimit:10;stroke-dasharray:none" stroke-linecap="round" id="path128" clip-path="url(#clipPath1033)" transform="translate(-270.76475,-0.87343467)" />
  <path d="m 423.51095,3.9412134 c -7.20765,-1.46401 -14.64853,-2.2761 -22.24677,-2.45594 h -6.08084 c -7.59543,0.17984 -15.0335,0.99474 -22.23834,2.45594 V 102.61717 h -98.64505 c -1.65228,8.15462 -2.52619,16.59586 -2.52619,25.23942 0,8.67447 0.87672,17.141 2.54024,25.32372 h 98.631 v 98.59447 c 8.16867,1.6579 16.62115,2.53181 25.27876,2.53181 8.66042,0 17.11571,-0.87391 25.28719,-2.53462 v -98.59166 h 98.62257 c 1.66352,-8.18272 2.54024,-16.64925 2.54024,-25.32372 0,-8.64356 -0.87391,-17.0848 -2.52619,-25.24223 h -98.63662 z" style="fill:#cc0000;fill-rule:nonzero;stroke:none;stroke-width:2.81;stroke-linecap:butt;stroke-linejoin:miter;stroke-miterlimit:10;stroke-dasharray:none" stroke-linecap="round" id="path130" clip-path="url(#clipPath1029)" transform="translate(-270.76475,-0.87343467)" />
  <path d="m 511.30378,184.43594 c 2.32949,-4.64493 4.3836,-9.45003 6.13704,-14.40125 h -34.93673 z" style="fill:#cc0000;fill-rule:nonzero;stroke:none;stroke-width:2.81;stroke-linecap:butt;stroke-linejoin:miter;stroke-miterlimit:10;stroke-dasharray:none" stroke-linecap="round" id="path132" clip-path="url(#clipPath1025)" transform="translate(-270.76475,-0.87343467)" />
  <path d="m 502.80072,56.766403 -57.98435,28.99358 h 37.68772 l 28.83341,-14.41811 c -2.53181,-5.058 -5.37553,-9.93054 -8.53678,-14.57547 z" style="fill:#cc0000;fill-rule:nonzero;stroke:none;stroke-width:2.81;stroke-linecap:butt;stroke-linejoin:miter;stroke-miterlimit:10;stroke-dasharray:none" stroke-linecap="round" id="path134" clip-path="url(#clipPath1021)" transform="translate(-270.76475,-0.87343467)" />
  <path d="m 285.11283,71.339063 c -2.32949,4.65055 -4.38079,9.46408 -6.13142,14.42092 h 34.97045 z" style="fill:#cc0000;fill-rule:nonzero;stroke:none;stroke-width:2.81;stroke-linecap:butt;stroke-linejoin:miter;stroke-miterlimit:10;stroke-dasharray:none" stroke-linecap="round" id="path136" clip-path="url(#clipPath1017)" />
  <path d="m 293.69176,199.0086 57.94782,-28.97391 h -37.68772 l -28.80812,14.40406 c 2.53743,5.058 5.38396,9.93054 8.54802,14.56985 z" style="fill:#cc0000;fill-rule:nonzero;stroke:none;stroke-width:2.81;stroke-linecap:butt;stroke-linejoin:miter;stroke-miterlimit:10;stroke-dasharray:none" stroke-linecap="round" id="path138" clip-path="url(#clipPath1013)" transform="translate(-270.76475,-0.87343467)" />
  <path d="M 298.76381,205.8931" style="fill:#000066;fill-rule:nonzero;stroke:none;stroke-width:2.81;stroke-linecap:butt;stroke-linejoin:miter;stroke-miterlimit:10;stroke-dasharray:none" stroke-linecap="round" id="path140" clip-path="url(#clipPath1009)" />
  <path d="M 497.73148,49.881903" style="fill:#000066;fill-rule:nonzero;stroke:none;stroke-width:2.81;stroke-linecap:butt;stroke-linejoin:miter;stroke-miterlimit:10;stroke-dasharray:none" stroke-linecap="round" id="path142" clip-path="url(#clipPath1005)" />
  <path d="M 497.68371,205.89029" style="fill:#000066;fill-rule:nonzero;stroke:none;stroke-width:2.81;stroke-linecap:butt;stroke-linejoin:miter;stroke-miterlimit:10;stroke-dasharray:none" stroke-linecap="round" id="path144" clip-path="url(#clipPath1001)" transform="translate(-270.76475,-0.87343467)" />
  <path d="M 298.71885,49.879093" style="fill:#000066;fill-rule:nonzero;stroke:none;stroke-width:2.81;stroke-linecap:butt;stroke-linejoin:miter;stroke-miterlimit:10;stroke-dasharray:none" stroke-linecap="round" id="path146" clip-path="url(#clipPath997)" />
  <path d="m 298.71885,49.876283 57.36896,28.68448 V 67.348863 8.6676334 C 333.2397,16.743573 313.39829,31.172923 298.71885,49.876283 Z" style="fill:#000066;fill-rule:nonzero;stroke:none;stroke-width:2.81;stroke-linecap:butt;stroke-linejoin:miter;stroke-miterlimit:10;stroke-dasharray:none" stroke-linecap="round" id="path148" clip-path="url(#clipPath993)" transform="translate(-270.76475,-0.87343467)" />
  <path d="m 440.36533,8.6704434 v 62.6686196 7.2217 l 57.36334,-28.68167 C 483.05204,31.175733 463.21344,16.746383 440.36533,8.6704434 Z" style="fill:#000066;fill-rule:nonzero;stroke:none;stroke-width:2.81;stroke-linecap:butt;stroke-linejoin:miter;stroke-miterlimit:10;stroke-dasharray:none" stroke-linecap="round" id="path150" clip-path="url(#clipPath989)" transform="translate(-270.76475,-0.87343467)" />
  <path d="m 356.09062,205.89029 v -28.65638 l -57.324,28.662 c 14.67382,18.67526 34.49556,33.08494 57.324,41.15526 z" style="fill:#000066;fill-rule:nonzero;stroke:none;stroke-width:2.81;stroke-linecap:butt;stroke-linejoin:miter;stroke-miterlimit:10;stroke-dasharray:none" stroke-linecap="round" id="path152" clip-path="url(#clipPath985)" transform="translate(-270.76475,-0.87343467)" />
  <path d="m 440.36533,177.23391 v 26.12176 43.68988 c 22.82563,-8.07032 42.64456,-22.48 57.31838,-41.15526 z" style="fill:#000066;fill-rule:nonzero;stroke:none;stroke-width:2.81;stroke-linecap:butt;stroke-linejoin:miter;stroke-miterlimit:10;stroke-dasharray:none" stroke-linecap="round" id="path154" clip-path="url(#clipPath981)" transform="translate(-270.76475,-0.87343467)" />
  <rect style="fill:#000000;stroke-width:1.33795" id="rect1037" width="253.29605" height="13.974963" x="-128.81378" y="173.3421" transform="rotate(-45.688085)" />
</svg>